Coordinates
version=1
nRows=19
nColumns=24
inDegrees=yes

Units are S.I. units (second, meters, Newtons, ...)
Angles are in degrees.

endheader
time	pelvis_tilt	pelvis_list	pelvis_rotation	pelvis_tx	pelvis_ty	pelvis_tz	hip_flexion_r	hip_adduction_r	hip_rotation_r	knee_angle_r	ankle_angle_r	subtalar_angle_r	mtp_angle_r	hip_flexion_l	hip_adduction_l	hip_rotation_l	knee_angle_l	ankle_angle_l	subtalar_angle_l	mtp_angle_l	lumbar_extension	lumbar_bending	lumbar_rotation
      4.53500000	    -10.64636685	      1.54224765	      1.81332906	     -1.83042117	     -0.01319930	      0.41889309	     35.53341565	     -2.93873542	     -6.89021709	    -44.25594778	     -9.46159087	    -12.06981688	     13.27179092	      4.36651570	      3.95925995	     11.65377309	     -8.40959548	      3.81049992	      1.92378029	      5.12756727	      5.21391527	     -3.68115822	     -2.60412567
      4.54000000	    -10.72519439	      1.48127154	      2.13677758	     -1.82452418	     -0.01365400	      0.41904171	     35.74668333	     -3.04747774	     -7.16952113	    -42.47107551	     -8.96053309	    -11.21092379	     13.48709645	      3.88712260	      3.85644208	     11.72054630	     -8.08834960	      3.93324233	      2.10600734	      5.16323706	      5.22869816	     -3.70700826	     -2.90518811
      4.54500000	    -10.78037459	      1.44171011	      2.47837528	     -1.81866790	     -0.01410890	      0.41919805	     35.89683942	     -3.18554775	     -7.43254488	    -40.62633709	     -8.41441556	    -10.22391489	     13.74634416	      3.40376282	      3.77630802	     11.75085217	     -7.79939740	      4.04319666	      2.30828070	      5.20283976	      5.20651582	     -3.76308963	     -3.24424527
      4.55000000	    -10.88746791	      1.37612160	      2.77195333	     -1.81273333	     -0.01465308	      0.41945873	     36.06274697	     -3.26466860	     -7.65269490	    -38.70987877	     -7.91091285	     -9.19267819	     14.02725718	      2.96767277	      3.65632402	     11.76675732	     -7.50481635	      4.16646298	      2.50349495	      5.25115805	      5.25450938	     -3.79524581	     -3.47886497
      4.55500000	    -10.97558568	      1.33102866	      3.07751492	     -1.80680320	     -0.01519644	      0.41969715	     36.16884101	     -3.37201450	     -7.85106018	    -36.74250113	     -7.37989070	     -8.05483298	     14.34267131	      2.53079830	      3.56023093	     11.75587207	     -7.24655793	      4.27704170	      2.72687466	      5.31237781	      5.27692570	     -3.84287060	     -3.75084626
      4.56000000	    -11.02546696	      1.31021377	      3.40740161	     -1.80093132	     -0.01572145	      0.41993450	     36.19922925	     -3.51146244	     -8.01358610	    -34.74093023	     -6.84023613	     -6.83189953	     14.62882470	      2.08466079	      3.49060300	     11.72560410	     -7.04242306	      4.38804091	      2.97154313	      5.38521740	      5.23672757	     -3.91967401	     -4.07017098
      4.56500000	    -11.10692669	      1.27684905	      3.70264095	     -1.79495569	     -0.01631405	      0.42022713	     36.22776075	     -3.62098914	     -8.15674020	    -32.70348285	     -6.34991775	     -5.61989726	     14.88630642	      1.66364299	      3.39949741	     11.68540338	     -6.83459444	      4.49866210	      3.21581112	      5.46714740	      5.24909019	     -3.98068226	     -4.30754040
      4.57000000	    -11.18663683	      1.24974567	      3.99339479	     -1.78894658	     -0.01692865	      0.42053637	     36.22333660	     -3.73517809	     -8.27900878	    -30.64939917	     -5.90366859	     -4.42301568	     15.10789704	      1.25172929	      3.31174548	     11.63630550	     -6.65189677	      4.60405440	      3.47216358	      5.56522771	      5.26021886	     -4.04629963	     -4.53246782
      4.57500000	    -11.25169743	      1.23123648	      4.28535772	     -1.78291997	     -0.01754822	      0.42085115	     36.17662947	     -3.86037022	     -8.38632297	    -28.59561460	     -5.51050314	     -3.25922004	     15.27202343	      0.83913541	      3.22885740	     11.59100505	     -6.50110211	      4.70752876	      3.74930158	      5.68299008	      5.25266257	     -4.11790216	     -4.75550724
      4.58000000	    -11.30947622	      1.21645950	      4.57227275	     -1.77685646	     -0.01818331	      0.42117815	     36.09894196	     -3.98903307	     -8.48686116	    -26.55549260	     -5.17932404	     -2.17781842	     15.37008966	      0.43223485	      3.14595844	     11.54759929	     -6.38157532	      4.80785228	      4.03588860	      5.81693221	      5.23886551	     -4.18883973	     -4.96452984
      4.58500000	    -11.35954514	      1.20534051	      4.85512814	     -1.77075361	     -0.01883160	      0.42151598	     35.99492826	     -4.12234188	     -8.58977450	    -24.54537427	     -4.91531211	     -1.20360597	     15.40337469	      0.03112611	      3.06276148	     11.50972199	     -6.29410569	      4.90392208	      4.33192307	      5.96760728	      5.21831030	     -4.25926887	     -5.16213557
      4.59000000	    -11.39973307	      1.19823257	      5.13609466	     -1.76462109	     -0.01948869	      0.42186375	     35.86771255	     -4.26124434	     -8.70069924	    -22.58212288	     -4.71839115	     -0.36157676	     15.36763791	     -0.36309711	      2.97957208	     11.48290951	     -6.24465457	      4.99615399	      4.63544659	      6.13588317	      5.18661708	     -4.32905728	     -5.34927541
      4.59500000	    -11.43607925	      1.19428525	      5.41268155	     -1.75845074	     -0.02015857	      0.42223071	     35.72956353	     -4.40261851	     -8.82244439	    -20.68299041	     -4.59005624	      0.33106217	     15.26725955	     -0.74505919	      2.89521123	     11.46933693	     -6.23155972	      5.08064327	      4.94272036	      6.31903045	      5.15223702	     -4.39814390	     -5.52429927
      4.60000000	    -11.48903393	      1.18942610	      5.68631822	     -1.75223917	     -0.02087310	      0.42264185	     35.60688171	     -4.54078583	     -8.94660224	    -18.86313535	     -4.51483547	      0.85571539	     15.11715687	     -1.09113478	      2.80468256	     11.50134078	     -6.26131346	      5.16639166	      5.24166064	      6.51162118	      5.13727309	     -4.47053635	     -5.66642974
      4.60500000	    -11.50010721	      1.20857249	      5.96524190	     -1.74603320	     -0.02153115	      0.42301310	     35.44659446	     -4.71003765	     -9.10382499	    -17.14793296	     -4.51527755	      1.24961914	     14.89066771	     -1.46127201	      2.73668590	     11.51062690	     -6.32797800	      5.22899248	      5.58368704	      6.73597263	      5.07218882	     -4.54861025	     -5.85053376
      4.61000000	    -11.53318352	      1.22678173	      6.22435475	     -1.73976822	     -0.02223583	      0.42345122	     35.31907975	     -4.86544790	     -9.25527786	    -15.54413845	     -4.54766194	      1.50320526	     14.62618813	     -1.78976006	      2.66433801	     11.53543273	     -6.43979321	      5.27902177	      5.90500162	      6.95862792	      5.03479380	     -4.62810055	     -5.99412858
      4.61500000	    -11.55678827	      1.24412370	      6.48675548	     -1.73347698	     -0.02293346	      0.42390719	     35.19106335	     -5.02215265	     -9.43384698	    -14.06235728	     -4.61976827	      1.64860511	     14.32724100	     -2.10601695	      2.58555763	     11.56293065	     -6.59306882	      5.32872498	      6.25206085	      7.21299046	      4.98544336	     -4.70500439	     -6.13838958
      4.62000000	    -11.57429004	      1.25838800	      6.73963841	     -1.72714202	     -0.02362319	      0.42437775	     35.06961516	     -5.17097405	     -9.63362955	    -12.71245060	     -4.72679382	      1.70263770	     14.00420835	     -2.40728875	      2.49925955	     11.58986673	     -6.79044062	      5.37051581	      6.62714445	      7.49897483	      4.93545419	     -4.76912574	     -6.26625296
      4.62500000	    -11.56750126	      1.24030714	      6.96163926	     -1.72070808	     -0.02429275	      0.42491482	     34.92522409	     -5.26529337	     -9.81944997	    -11.48269394	     -4.84760791	      1.69790754	     13.66064976	     -2.71615624	      2.36719728	     11.55912115	     -7.02101726	      5.42418467	      7.05787493	      7.86247717	      4.87245302	     -4.79167452	     -6.36455676
